<svg width="277" height="40" viewBox="0 0 277 40" fill="none" xmlns="http://www.w3.org/2000/svg">
<path d="M231.259 35.9684C229.493 35.9684 228.122 34.784 228.122 32.9866C228.122 31.1788 229.493 30.0048 231.259 30.0048C232.381 30.0048 233.192 30.5762 233.638 31.2308L232.527 31.8749C232.257 31.5009 231.81 31.2204 231.259 31.2204C230.241 31.2204 229.524 31.958 229.524 32.9866C229.524 34.0048 230.241 34.7736 231.259 34.7736C231.758 34.7736 232.153 34.5554 232.371 34.358V33.7347H231.02V32.623H233.742V34.8775C233.129 35.5425 232.277 35.9684 231.259 35.9684ZM244.467 35.8438H242.898L241.755 33.8801H240.893V35.8438H239.521V30.1295H242.409C243.677 30.1295 244.415 30.971 244.415 31.9996C244.415 33.0386 243.75 33.6204 243.095 33.745L244.467 35.8438ZM242.243 32.6957C242.742 32.6957 243.022 32.4048 243.022 31.9996C243.022 31.6048 242.721 31.3243 242.243 31.3243H240.893V32.6957H242.243ZM254.464 35.8438H250.152V30.1295H254.464V31.3035H251.524V32.3528H254.402V33.5269H251.524V34.6697H254.464V35.8438ZM264.537 35.8438H260.225V30.1295H264.537V31.3035H261.597V32.3528H264.475V33.5269H261.597V34.6697H264.537V35.8438ZM275.732 35.8438H274.319L271.67 32.2697V35.8438H270.298V30.1295H271.774L274.361 33.5892V30.1295H275.732V35.8438Z" fill="#49BC4D"/>
<path d="M68.9749 15.596C68.9749 15.2302 68.9001 14.8895 68.7505 14.5736C68.6175 14.2412 68.4263 13.9586 68.177 13.7258C67.9443 13.4765 67.6617 13.2853 67.3292 13.1523C67.0133 13.0027 66.6726 12.9279 66.3068 12.9279H49.7001V18.2391H66.3068C66.6726 18.2391 67.0133 18.1726 67.3292 18.0396C67.6617 17.89 67.9443 17.6988 68.177 17.4661C68.4263 17.2167 68.6175 16.9341 68.7505 16.6183C68.9001 16.3025 68.9749 15.9617 68.9749 15.596ZM49.7001 21.9544V25.4453H45.9848V9.21259H66.3068C67.1713 9.21259 67.9941 9.38713 68.7754 9.73622C69.5567 10.0687 70.23 10.5258 70.7952 11.1077C71.377 11.6728 71.8341 12.3461 72.1666 13.1274C72.5157 13.9087 72.6902 14.7315 72.6902 15.596C72.6902 16.477 72.5157 17.2999 72.1666 18.0645C71.8341 18.8126 71.377 19.4775 70.7952 20.0593C70.23 20.6245 69.5567 21.0734 68.7754 21.4058C67.9941 21.7383 67.1713 21.9212 66.3068 21.9544H49.7001ZM101.201 17.3165C101.201 16.718 101.085 16.1528 100.852 15.6209C100.62 15.0889 100.304 14.6235 99.9047 14.2245C99.5057 13.8256 99.0403 13.5097 98.5083 13.277C97.9764 13.0443 97.4112 12.9279 96.8128 12.9279H85.0683C84.4699 12.9279 83.9047 13.0443 83.3728 13.277C82.8408 13.5097 82.3754 13.8256 81.9764 14.2245C81.5774 14.6235 81.2616 15.0889 81.0289 15.6209C80.7961 16.1528 80.6798 16.718 80.6798 17.3165C80.6798 17.9149 80.7878 18.4884 81.0039 19.037C81.2367 19.5689 81.5525 20.0344 81.9515 20.4334C82.3504 20.8323 82.8159 21.1482 83.3478 21.3809C83.8798 21.6136 84.4533 21.73 85.0683 21.73H96.8128C97.4112 21.73 97.9764 21.6136 98.5083 21.3809C99.0403 21.1482 99.5057 20.8323 99.9047 20.4334C100.304 20.0344 100.62 19.5689 100.852 19.037C101.085 18.4884 101.201 17.9149 101.201 17.3165ZM96.8128 9.21259C97.9265 9.21259 98.9738 9.42869 99.9546 9.8609C100.935 10.2765 101.791 10.8583 102.523 11.6064C103.271 12.3378 103.853 13.1939 104.268 14.1747C104.701 15.1554 104.917 16.2027 104.917 17.3165C104.917 18.4302 104.701 19.4858 104.268 20.4832C103.853 21.464 103.271 22.3201 102.523 23.0515C101.791 23.783 100.935 24.3648 99.9546 24.797C98.9738 25.2292 97.9265 25.4453 96.8128 25.4453H85.0683C83.938 25.4453 82.8824 25.2375 81.9016 24.8219C80.9208 24.3897 80.0647 23.8079 79.3333 23.0765C78.6018 22.3284 78.02 21.464 77.5878 20.4832C77.1722 19.5025 76.9644 18.4469 76.9644 17.3165C76.9644 16.2027 77.1722 15.1554 77.5878 14.1747C78.02 13.1939 78.6018 12.3378 79.3333 11.6064C80.0813 10.8583 80.9457 10.2765 81.9265 9.8609C82.9073 9.42869 83.9546 9.21259 85.0683 9.21259H96.8128ZM140.658 25.4453H135.147L125.024 14.2744L114.9 25.4453H109.39V9.23752H113.105V22.0541L125.024 9.23752L136.943 22.0541V9.23752H140.658V25.4453ZM172.321 21.73V25.4453H145.341V9.23752H172.321V12.9528H149.057V15.4962H165.314V19.2115H149.057V21.73H172.321ZM199.922 15.596C199.922 15.2302 199.847 14.8895 199.697 14.5736C199.564 14.2412 199.373 13.9586 199.124 13.7258C198.891 13.4765 198.609 13.2853 198.276 13.1523C197.96 13.0027 197.619 12.9279 197.254 12.9279H180.647V18.2391H197.254C197.619 18.2391 197.96 18.1726 198.276 18.0396C198.609 17.89 198.891 17.6988 199.124 17.4661C199.373 17.2334 199.564 16.9591 199.697 16.6432C199.847 16.3108 199.922 15.9617 199.922 15.596ZM180.647 21.9544V25.4453H176.932V9.21259H197.628C198.459 9.21259 199.24 9.39544 199.972 9.76116C200.703 10.1269 201.335 10.6089 201.867 11.2074C202.415 11.8058 202.847 12.4874 203.163 13.2521C203.479 14.0167 203.637 14.798 203.637 15.596C203.637 16.2443 203.537 16.876 203.338 17.491C203.155 18.0895 202.881 18.6464 202.515 19.1617C202.166 19.677 201.742 20.1341 201.243 20.5331C200.761 20.9321 200.221 21.2562 199.623 21.5056L202.989 25.4453H198.102L195.134 21.9544H180.647ZM211.954 9.23752V25.4453H208.238V9.23752H211.954Z" fill="black"/>
<path d="M243.921 9.23752V25.4453H238.784L220.781 12.7783V25.4453H217.066V9.23752H222.127L240.205 21.9295V9.23752H243.921ZM271.969 17.3414C271.969 16.743 271.853 16.1778 271.62 15.6458C271.387 15.1139 271.071 14.6484 270.672 14.2495C270.273 13.8505 269.808 13.5347 269.276 13.3019C268.744 13.0692 268.179 12.9528 267.58 12.9528H252.42V21.73H267.58C268.179 21.73 268.744 21.6136 269.276 21.3809C269.808 21.1482 270.273 20.8323 270.672 20.4334C271.071 20.0344 271.387 19.5689 271.62 19.037C271.853 18.5051 271.969 17.9399 271.969 17.3414ZM267.58 9.23752C268.694 9.23752 269.741 9.45363 270.722 9.88583C271.703 10.3014 272.559 10.8832 273.29 11.6313C274.038 12.3627 274.62 13.2188 275.036 14.1996C275.468 15.1804 275.684 16.2277 275.684 17.3414C275.684 18.4552 275.468 19.5025 275.036 20.4832C274.62 21.464 274.038 22.3284 273.29 23.0765C272.559 23.8079 271.703 24.3897 270.722 24.8219C269.741 25.2375 268.694 25.4453 267.58 25.4453H248.704V9.23752H267.58Z" fill="black"/>
<path d="M26.8494 2.2732C22.3561 9.63663 15.2189 13.5434 8.97994 13.4551C7.77028 13.5303 7.01174 12.2209 7.61863 11.1718L11.3544 4.71399C13.0421 1.79658 16.1569 0 19.5273 0H25.5281C26.7131 0 27.4667 1.26168 26.8494 2.2732Z" fill="url(#paint0_linear_1261_4392)"/>
<path d="M15.6681 15.9727H5.78917C5.22423 15.9727 4.70263 16.2755 4.42253 16.7662L0.466544 23.3762C-0.14769 24.4509 -0.000189882 25.4152 0.059508 25.9095L1.74332 38.3115C1.81139 38.8128 1.91015 39.3524 2.30769 39.6653C3.01724 40.2239 4.1409 40.0903 4.6469 39.2115L17.0319 18.3316C17.6359 17.2825 16.8787 15.9727 15.6681 15.9727Z" fill="url(#paint1_linear_1261_4392)"/>
<path d="M20.5581 29.1703H14.9402C14.3187 29.1734 13.928 28.5013 14.2383 27.9628C18.9955 20.4453 26.431 15.9727 35.1433 15.9727H35.3654C35.9947 15.9727 36.3884 16.6534 36.0746 17.1988L32.9641 22.138C30.6773 26.1752 23.92 29.1536 20.5581 29.1703Z" fill="url(#paint2_linear_1261_4392)"/>
<path d="M25.3731 8.94366L29.8583 1.39359C30.205 0.809937 30.9147 0.551036 31.5558 0.774317L32.9103 1.24604C37.6901 2.91075 39.6436 8.61606 36.8873 12.8612C36.6111 13.2866 36.1384 13.5433 35.6311 13.5433H27.9907C25.6301 13.5433 24.1674 10.9732 25.3731 8.94366Z" fill="url(#paint3_linear_1261_4392)"/>
<defs>
<linearGradient id="paint0_linear_1261_4392" x1="21.9536" y1="-2.50456" x2="17.013" y2="39.9268" gradientUnits="userSpaceOnUse">
<stop stop-color="#49BC4D"/>
<stop offset="1" stop-color="#52B456"/>
</linearGradient>
<linearGradient id="paint1_linear_1261_4392" x1="21.9536" y1="-2.50456" x2="17.013" y2="39.9268" gradientUnits="userSpaceOnUse">
<stop stop-color="#49BC4D"/>
<stop offset="1" stop-color="#52B456"/>
</linearGradient>
<linearGradient id="paint2_linear_1261_4392" x1="21.9536" y1="-2.50456" x2="17.013" y2="39.9268" gradientUnits="userSpaceOnUse">
<stop stop-color="#49BC4D"/>
<stop offset="1" stop-color="#52B456"/>
</linearGradient>
<linearGradient id="paint3_linear_1261_4392" x1="34.5709" y1="-0.432917" x2="33.5795" y2="13.6386" gradientUnits="userSpaceOnUse">
<stop stop-color="#49BC4D"/>
<stop offset="1" stop-color="#52B456"/>
</linearGradient>
</defs>
</svg>
